<svg width="37" height="46" viewBox="0 0 37 46" fill="none" xmlns="http://www.w3.org/2000/svg">
<path d="M14.3821 0C6.43981 0 0 6.43908 0 14.3805C0 22.3219 6.43981 28.761 14.3821 28.761C17.4363 28.761 20.2687 27.8085 22.5969 26.1861L22.5986 26.1844L33.265 36.8497C33.463 37.0476 33.7777 37.0526 33.9808 36.8497L36.8555 33.9752C37.0535 33.7773 37.0433 33.4491 36.8538 33.2596L26.189 22.596C27.8116 20.2664 28.7642 17.4342 28.7642 14.3805C28.7642 6.43908 22.3244 0 14.3821 0ZM14.3821 25.3774C8.30773 25.3774 3.38398 20.4542 3.38398 14.3805C3.38398 8.30685 8.30779 3.38366 14.3821 3.38366C20.4564 3.38366 25.3802 8.30685 25.3802 14.3805C25.3802 20.4542 20.4564 25.3774 14.3821 25.3774Z" fill="#03C75A"/>
<path d="M20.8416 40.048C20.8509 40.104 20.8556 40.16 20.8556 40.216C20.8649 40.2627 20.8696 40.3187 20.8696 40.384C20.8696 40.496 20.8369 40.5987 20.7716 40.692C20.7436 40.7387 20.7062 40.7853 20.6596 40.832C20.6129 40.8693 20.5569 40.902 20.4916 40.93C20.2582 41.0607 20.0109 41.1073 19.7496 41.07C19.6189 41.0327 19.5022 40.972 19.3996 40.888C19.3809 40.8693 19.3669 40.86 19.3576 40.86C19.3482 40.8507 19.3389 40.8367 19.3296 40.818C19.3202 40.8087 19.3109 40.7993 19.3016 40.79C19.2922 40.7713 19.2782 40.7573 19.2596 40.748C19.2129 40.7013 19.1756 40.6593 19.1476 40.622C19.1196 40.5753 19.0916 40.5287 19.0636 40.482C19.0449 40.4353 19.0216 40.3933 18.9936 40.356C18.9749 40.3093 18.9516 40.2627 18.9236 40.216C18.9049 40.1787 18.8862 40.146 18.8676 40.118C18.8489 40.0807 18.8349 40.0433 18.8256 40.006C18.7882 39.922 18.7649 39.8473 18.7556 39.782L18.4616 39.096C17.8176 39.096 17.1736 39.1007 16.5296 39.11C15.8949 39.11 15.2556 39.1053 14.6116 39.096L14.3176 39.782C14.2989 39.8193 14.2849 39.8567 14.2756 39.894C14.2756 39.9313 14.2662 39.9687 14.2476 40.006C14.2289 40.0433 14.2102 40.0807 14.1916 40.118C14.1822 40.146 14.1682 40.1787 14.1496 40.216C14.1216 40.2627 14.0936 40.3093 14.0656 40.356C14.0469 40.3933 14.0236 40.4353 13.9956 40.482C13.9769 40.5287 13.9536 40.5753 13.9256 40.622C13.8976 40.6593 13.8602 40.7013 13.8136 40.748C13.7949 40.7573 13.7809 40.7713 13.7716 40.79C13.7622 40.7993 13.7529 40.8087 13.7436 40.818C13.7342 40.8367 13.7249 40.8507 13.7156 40.86C13.7062 40.86 13.6922 40.8693 13.6736 40.888C13.5709 40.972 13.4542 41.0327 13.3236 41.07C13.0622 41.1073 12.8149 41.0607 12.5816 40.93C12.5162 40.902 12.4602 40.8693 12.4136 40.832C12.3669 40.7853 12.3296 40.7387 12.3016 40.692C12.2362 40.5987 12.2036 40.496 12.2036 40.384C12.2036 40.3187 12.2036 40.2627 12.2036 40.216C12.2129 40.16 12.2222 40.104 12.2316 40.048C12.2502 39.964 12.2736 39.88 12.3016 39.796C12.3296 39.712 12.3436 39.67 12.3436 39.67L15.2556 32.502L15.3396 32.278C15.3582 32.222 15.3816 32.1707 15.4096 32.124C15.4376 32.0773 15.4609 32.0213 15.4796 31.956C15.5262 31.8347 15.5776 31.7273 15.6336 31.634C15.6616 31.578 15.6942 31.5267 15.7316 31.48C15.7689 31.4333 15.8062 31.3867 15.8436 31.34C15.8996 31.2653 15.9789 31.2047 16.0816 31.158C16.2122 31.1113 16.3616 31.088 16.5296 31.088C16.7069 31.088 16.8609 31.1113 16.9916 31.158C17.0942 31.2047 17.1736 31.2653 17.2296 31.34C17.2949 31.424 17.3649 31.522 17.4396 31.634C17.4956 31.7273 17.5469 31.8347 17.5936 31.956C17.6122 32.0213 17.6356 32.0773 17.6636 32.124C17.6916 32.1707 17.7149 32.222 17.7336 32.278L17.8176 32.502L20.7296 39.67C20.7296 39.67 20.7436 39.712 20.7716 39.796C20.7996 39.88 20.8229 39.964 20.8416 40.048ZM17.5236 36.618C17.4022 36.3473 17.2762 36.0673 17.1456 35.778C17.0242 35.4887 16.8936 35.1947 16.7536 34.896C16.7162 34.812 16.6789 34.728 16.6416 34.644C16.6042 34.5507 16.5669 34.462 16.5296 34.378C16.5016 34.462 16.4689 34.5507 16.4316 34.644C16.3942 34.728 16.3569 34.812 16.3196 34.896C16.1796 35.1947 16.0442 35.4887 15.9136 35.778C15.7922 36.0673 15.6709 36.3473 15.5496 36.618L15.2976 37.234H17.7756L17.5236 36.618ZM22.4266 39.516L22.4406 38.41L22.4546 36.352C22.464 36.0533 22.4686 35.7453 22.4686 35.428C22.4686 35.1107 22.4686 34.784 22.4686 34.448C22.4686 34.112 22.4686 33.8133 22.4686 33.552C22.4686 33.2907 22.478 32.9967 22.4966 32.67V32.614C22.506 32.5207 22.5106 32.4273 22.5106 32.334C22.52 32.2313 22.5246 32.1287 22.5246 32.026C22.534 31.858 22.5853 31.676 22.6786 31.48C22.744 31.3493 22.842 31.2373 22.9726 31.144C23.122 31.0693 23.2666 31.032 23.4066 31.032C23.4813 31.032 23.5466 31.0367 23.6026 31.046C23.668 31.046 23.7286 31.0507 23.7846 31.06C23.906 31.0787 24.0133 31.1347 24.1066 31.228C24.1626 31.2747 24.214 31.3493 24.2606 31.452C24.2793 31.508 24.2933 31.564 24.3026 31.62C24.3213 31.6667 24.3353 31.718 24.3446 31.774C24.354 31.8393 24.3586 31.9 24.3586 31.956C24.368 32.012 24.3726 32.068 24.3726 32.124C24.3726 32.1893 24.368 32.25 24.3586 32.306C24.3586 32.3527 24.3586 32.404 24.3586 32.46V32.698L24.2746 39.964V40.104C24.2746 40.132 24.27 40.1693 24.2606 40.216C24.2606 40.2533 24.256 40.3 24.2466 40.356C24.228 40.4027 24.2093 40.454 24.1906 40.51C24.1813 40.5567 24.1673 40.608 24.1486 40.664C24.1206 40.7107 24.088 40.7573 24.0506 40.804C24.0226 40.8413 23.9853 40.8787 23.9386 40.916C23.864 40.9907 23.7426 41.042 23.5746 41.07C23.3226 41.126 23.0846 41.1027 22.8606 41C22.7486 40.9253 22.6693 40.832 22.6226 40.72C22.5946 40.692 22.5806 40.664 22.5806 40.636C22.5713 40.6173 22.562 40.6033 22.5526 40.594C22.5433 40.5847 22.534 40.5707 22.5246 40.552C22.506 40.5053 22.492 40.4587 22.4826 40.412C22.4733 40.356 22.4686 40.3 22.4686 40.244C22.4593 40.1973 22.45 40.1507 22.4406 40.104C22.4406 40.0573 22.436 40.0107 22.4266 39.964C22.4173 39.8893 22.4173 39.81 22.4266 39.726V39.516Z" fill="#424242"/>
</svg>
