<svg width="40" height="40" viewBox="0 0 40 40" fill="none" xmlns="http://www.w3.org/2000/svg">
<path d="M15.651 13.9121H13.9119C11.9988 13.9121 10.4336 15.4773 10.4336 17.3904V19.9991V26.0861H12.1727V20.8686H17.3901V26.086H19.1292V20.8686V17.3904C19.1292 15.4773 17.5641 13.9121 15.651 13.9121ZM17.3901 19.1295H12.1727V17.3904C12.1727 16.3469 12.8684 15.6512 13.9119 15.6512H15.651C16.6945 15.6512 17.3901 16.3469 17.3901 17.3904V19.1295Z" fill="#424242"/>
<path d="M34.7826 8.69531H5.21739C2.26082 8.69531 0 10.9561 0 13.9127V26.0866C0 29.0432 2.26082 31.304 5.21739 31.304H34.7826C37.7392 31.304 40 29.0432 40 26.0866V13.9127C40 10.9561 37.7392 8.69531 34.7826 8.69531ZM38.2609 26.0866C38.2609 27.9996 36.6956 29.5649 34.7826 29.5649H5.21739C3.3043 29.5649 1.73913 27.9996 1.73913 26.0866V13.9127C1.73913 11.9996 3.3043 10.4344 5.21739 10.4344H34.7826C36.6956 10.4344 38.2609 11.9996 38.2609 13.9127V26.0866Z" fill="#424242"/>
<path d="M22.6094 15.6512H24.3485V24.3469H22.6094V26.086H27.8268V24.3469H26.0876V15.6512H27.8268V13.9121H22.6094V15.6512Z" fill="#424242"/>
</svg>
