<svg width="20" height="20" viewBox="0 0 20 20" fill="none" xmlns="http://www.w3.org/2000/svg">
<path d="M19.6956 0.661109C19.4923 0.414194 19.2187 0.233627 18.8752 0.119082C18.6565 0.0398638 18.4272 0.000185198 18.1876 0.000185198V0H1.81241C1.57286 0 1.34383 0.0396786 1.12503 0.118897C0.781342 0.233349 0.507815 0.414148 0.304722 0.660924C0.101683 0.9077 0 1.18077 0 1.48047V18.5195C0 18.8193 0.101683 19.0923 0.304722 19.3393C0.507815 19.586 0.781342 19.7668 1.12503 19.8812C1.34361 19.9604 1.57286 20 1.81241 20C2.30216 20 2.73423 19.8545 3.10933 19.564L10.0001 13.9589L16.8908 19.5641C17.2554 19.8456 17.6877 19.9867 18.1875 19.9867C18.448 19.9867 18.6772 19.9517 18.8752 19.8811C19.2187 19.7667 19.4923 19.586 19.6955 19.3389C19.8985 19.0923 20 18.8192 20 18.5195V1.48065C20.0001 1.18096 19.8984 0.907885 19.6956 0.661109ZM18.0001 18.1095L11.3907 12.7427L10.0001 11.6193L8.60949 12.7427L2.00017 18.1095V1.6922H18.0001V18.1095Z" fill="#03C75A"/>
</svg>
