<svg width="16" height="16" viewBox="0 0 16 16" fill="none" xmlns="http://www.w3.org/2000/svg">
<path d="M14.0698 3.373H8.23566L6.4406 1.55962C6.36831 1.48676 6.26961 1.44531 6.16667 1.44531H2.11853C1.04114 1.44531 0 2.43383 0 3.4769V12.7298C0 13.7582 1.02225 14.5536 2.11834 14.5536H14.2628C15.3082 14.5536 16 13.8112 16 12.7298V5.40459C15.9998 4.36152 15.1493 3.373 14.0698 3.373ZM15.2287 12.73C15.2287 13.3825 14.8783 13.7827 14.2626 13.7827H2.11814C1.44018 13.7827 0.770882 13.3405 0.770882 12.73V3.4771C0.770882 2.8558 1.4635 2.21658 2.11814 2.21658H6.00552L7.80058 4.02996C7.87287 4.10302 7.97157 4.14427 8.07451 4.14427H14.0696C14.7266 4.14427 15.2285 4.78349 15.2285 5.40478L15.2287 12.73Z" fill="#03C75A"/>
</svg>
