<svg width="14" height="14" viewBox="0 0 14 14" fill="none" xmlns="http://www.w3.org/2000/svg">
<path d="M0.541378 14C0.47054 14.0004 0.400317 13.9868 0.334737 13.96C0.269158 13.9332 0.20951 13.8938 0.159215 13.8439C0.108765 13.7938 0.0687223 13.7343 0.0413957 13.6687C0.0140691 13.6031 0 13.5327 0 13.4616C0 13.3905 0.0140691 13.3202 0.0413957 13.2546C0.0687223 13.189 0.108765 13.1294 0.159215 13.0794L13.0774 0.158332C13.1787 0.0569538 13.3162 0 13.4595 0C13.6029 0 13.7403 0.0569538 13.8417 0.158332C13.9431 0.25971 14 0.397209 14 0.540579C14 0.68395 13.9431 0.821448 13.8417 0.922827L0.92354 13.8439C0.873245 13.8938 0.813598 13.9332 0.748018 13.96C0.682438 13.9868 0.612216 14.0004 0.541378 14Z" fill="#424242"/>
<path d="M13.4586 14C13.3878 14.0004 13.3176 13.9868 13.252 13.96C13.1864 13.9332 13.1268 13.8938 13.0765 13.8439L0.158297 0.922827C0.056941 0.821448 -1.06796e-09 0.68395 0 0.540579C1.06796e-09 0.397209 0.056941 0.25971 0.158297 0.158332C0.259652 0.0569536 0.39712 1.06819e-09 0.540459 0C0.683798 -1.06819e-09 0.821266 0.0569536 0.922621 0.158332L13.8408 13.0794C13.8912 13.1294 13.9313 13.189 13.9586 13.2546C13.9859 13.3202 14 13.3905 14 13.4616C14 13.5327 13.9859 13.6031 13.9586 13.6687C13.9313 13.7343 13.8912 13.7938 13.8408 13.8439C13.7905 13.8938 13.7308 13.9332 13.6653 13.96C13.5997 13.9868 13.5295 14.0004 13.4586 14Z" fill="#424242"/>
</svg>
