<svg width="37" height="46" viewBox="0 0 37 46" fill="none" xmlns="http://www.w3.org/2000/svg">
<path d="M14.3821 0C6.43981 0 0 6.43908 0 14.3805C0 22.3219 6.43981 28.761 14.3821 28.761C17.4363 28.761 20.2687 27.8085 22.5969 26.1861L22.5986 26.1844L33.265 36.8497C33.463 37.0476 33.7777 37.0526 33.9808 36.8497L36.8555 33.9752C37.0535 33.7773 37.0433 33.4491 36.8538 33.2596L26.189 22.596C27.8116 20.2664 28.7642 17.4342 28.7642 14.3805C28.7642 6.43908 22.3244 0 14.3821 0ZM14.3821 25.3774C8.30773 25.3774 3.38398 20.4542 3.38398 14.3805C3.38398 8.30685 8.30779 3.38366 14.3821 3.38366C20.4564 3.38366 25.3802 8.30685 25.3802 14.3805C25.3802 20.4542 20.4564 25.3774 14.3821 25.3774Z" fill="#03C75A"/>
<path d="M8.73166 39.936C8.72233 40.0947 8.699 40.2627 8.66166 40.44C8.63366 40.6173 8.545 40.762 8.39566 40.874C8.28366 40.9673 8.15766 41.0233 8.01766 41.042C7.87766 41.0607 7.73766 41.0513 7.59766 41.014C7.467 40.986 7.341 40.9393 7.21966 40.874C7.09833 40.7993 7.00033 40.7107 6.92566 40.608C6.60833 40.216 6.31433 39.8147 6.04366 39.404C5.78233 38.984 5.51633 38.564 5.24566 38.144L4.06966 36.366C3.911 36.114 3.743 35.834 3.56566 35.526C3.38833 35.2087 3.20633 34.9147 3.01966 34.644L2.97766 39.992V40.118C2.97766 40.2673 2.94966 40.4167 2.89366 40.566C2.847 40.706 2.763 40.8273 2.64166 40.93C2.54833 41.0047 2.427 41.056 2.27766 41.084C2.04433 41.1307 1.84833 41.1167 1.68966 41.042C1.54033 40.9673 1.419 40.8647 1.32566 40.734C1.24166 40.6033 1.181 40.454 1.14366 40.286C1.11566 40.1087 1.111 39.936 1.12966 39.768V39.53L1.15766 38.438L1.17166 36.408C1.181 36.1093 1.18566 35.806 1.18566 35.498C1.18566 35.1807 1.18566 34.8587 1.18566 34.532C1.17633 34.1307 1.17633 33.706 1.18566 33.258C1.20433 32.81 1.223 32.39 1.24166 31.998C1.26033 31.7833 1.31166 31.6013 1.39566 31.452C1.433 31.3213 1.531 31.2093 1.68966 31.116C1.79233 31.0507 1.923 31.0087 2.08166 30.99C2.24966 30.9713 2.39433 30.976 2.51566 31.004C2.56233 31.0227 2.609 31.046 2.65566 31.074C2.70233 31.0927 2.749 31.116 2.79566 31.144C2.84233 31.1813 2.88433 31.2187 2.92166 31.256C2.96833 31.2933 3.01033 31.3353 3.04766 31.382C3.09433 31.4287 3.13633 31.48 3.17366 31.536C3.211 31.5827 3.24833 31.6293 3.28566 31.676C3.31366 31.732 3.34166 31.7833 3.36966 31.83C3.39766 31.8767 3.43033 31.9233 3.46766 31.97L3.62166 32.194L6.85566 37.29V36.366C6.85566 36.0673 6.851 35.764 6.84166 35.456C6.84166 35.1387 6.837 34.812 6.82766 34.476C6.82766 34.084 6.82766 33.664 6.82766 33.216C6.837 32.768 6.851 32.348 6.86966 31.956C6.86966 31.7973 6.91633 31.6153 7.00966 31.41C7.05633 31.2887 7.13566 31.1907 7.24766 31.116C7.35966 31.0413 7.48566 30.99 7.62566 30.962C7.76566 30.934 7.90566 30.934 8.04566 30.962C8.18566 30.99 8.307 31.046 8.40966 31.13C8.43766 31.158 8.46566 31.1907 8.49366 31.228C8.52166 31.2653 8.545 31.3073 8.56366 31.354C8.61033 31.4753 8.63833 31.5827 8.64766 31.676C8.67566 31.8067 8.68966 31.9233 8.68966 32.026C8.68966 33.1927 8.68966 34.3827 8.68966 35.596C8.699 36.8093 8.70833 37.9993 8.71766 39.166C8.71766 39.2967 8.72233 39.4273 8.73166 39.558C8.741 39.6793 8.741 39.8053 8.73166 39.936ZM18.5037 40.048C18.513 40.104 18.5177 40.16 18.5177 40.216C18.527 40.2627 18.5317 40.3187 18.5317 40.384C18.5317 40.496 18.499 40.5987 18.4337 40.692C18.4057 40.7387 18.3683 40.7853 18.3217 40.832C18.275 40.8693 18.219 40.902 18.1537 40.93C17.9203 41.0607 17.673 41.1073 17.4117 41.07C17.281 41.0327 17.1643 40.972 17.0617 40.888C17.043 40.8693 17.029 40.86 17.0197 40.86C17.0103 40.8507 17.001 40.8367 16.9917 40.818C16.9823 40.8087 16.973 40.7993 16.9637 40.79C16.9543 40.7713 16.9403 40.7573 16.9217 40.748C16.875 40.7013 16.8377 40.6593 16.8097 40.622C16.7817 40.5753 16.7537 40.5287 16.7257 40.482C16.707 40.4353 16.6837 40.3933 16.6557 40.356C16.637 40.3093 16.6137 40.2627 16.5857 40.216C16.567 40.1787 16.5483 40.146 16.5297 40.118C16.511 40.0807 16.497 40.0433 16.4877 40.006C16.4503 39.922 16.427 39.8473 16.4177 39.782L16.1237 39.096C15.4797 39.096 14.8357 39.1007 14.1917 39.11C13.557 39.11 12.9177 39.1053 12.2737 39.096L11.9797 39.782C11.961 39.8193 11.947 39.8567 11.9377 39.894C11.9377 39.9313 11.9283 39.9687 11.9097 40.006C11.891 40.0433 11.8723 40.0807 11.8537 40.118C11.8443 40.146 11.8303 40.1787 11.8117 40.216C11.7837 40.2627 11.7557 40.3093 11.7277 40.356C11.709 40.3933 11.6857 40.4353 11.6577 40.482C11.639 40.5287 11.6157 40.5753 11.5877 40.622C11.5597 40.6593 11.5223 40.7013 11.4757 40.748C11.457 40.7573 11.443 40.7713 11.4337 40.79C11.4243 40.7993 11.415 40.8087 11.4057 40.818C11.3963 40.8367 11.387 40.8507 11.3777 40.86C11.3683 40.86 11.3543 40.8693 11.3357 40.888C11.233 40.972 11.1163 41.0327 10.9857 41.07C10.7243 41.1073 10.477 41.0607 10.2437 40.93C10.1783 40.902 10.1223 40.8693 10.0757 40.832C10.029 40.7853 9.99166 40.7387 9.96366 40.692C9.89833 40.5987 9.86566 40.496 9.86566 40.384C9.86566 40.3187 9.86566 40.2627 9.86566 40.216C9.875 40.16 9.88433 40.104 9.89366 40.048C9.91233 39.964 9.93566 39.88 9.96366 39.796C9.99166 39.712 10.0057 39.67 10.0057 39.67L12.9177 32.502L13.0017 32.278C13.0203 32.222 13.0437 32.1707 13.0717 32.124C13.0997 32.0773 13.123 32.0213 13.1417 31.956C13.1883 31.8347 13.2397 31.7273 13.2957 31.634C13.3237 31.578 13.3563 31.5267 13.3937 31.48C13.431 31.4333 13.4683 31.3867 13.5057 31.34C13.5617 31.2653 13.641 31.2047 13.7437 31.158C13.8743 31.1113 14.0237 31.088 14.1917 31.088C14.369 31.088 14.523 31.1113 14.6537 31.158C14.7563 31.2047 14.8357 31.2653 14.8917 31.34C14.957 31.424 15.027 31.522 15.1017 31.634C15.1577 31.7273 15.209 31.8347 15.2557 31.956C15.2743 32.0213 15.2977 32.0773 15.3257 32.124C15.3537 32.1707 15.377 32.222 15.3957 32.278L15.4797 32.502L18.3917 39.67C18.3917 39.67 18.4057 39.712 18.4337 39.796C18.4617 39.88 18.485 39.964 18.5037 40.048ZM15.1857 36.618C15.0643 36.3473 14.9383 36.0673 14.8077 35.778C14.6863 35.4887 14.5557 35.1947 14.4157 34.896C14.3783 34.812 14.341 34.728 14.3037 34.644C14.2663 34.5507 14.229 34.462 14.1917 34.378C14.1637 34.462 14.131 34.5507 14.0937 34.644C14.0563 34.728 14.019 34.812 13.9817 34.896C13.8417 35.1947 13.7063 35.4887 13.5757 35.778C13.4543 36.0673 13.333 36.3473 13.2117 36.618L12.9597 37.234H15.4377L15.1857 36.618ZM28.1807 39.992C28.1714 40.104 28.1574 40.2207 28.1387 40.342C28.1201 40.4633 28.0874 40.5753 28.0407 40.678C27.9941 40.79 27.9334 40.874 27.8587 40.93C27.7561 41.0233 27.6347 41.0747 27.4947 41.084C27.3641 41.1307 27.2381 41.1447 27.1167 41.126C26.9954 41.1073 26.8834 41.0747 26.7807 41.028C26.6501 40.944 26.5521 40.846 26.4867 40.734C26.4307 40.6127 26.3887 40.4867 26.3607 40.356C26.3327 40.2253 26.3187 40.09 26.3187 39.95C26.3187 39.81 26.3187 39.6793 26.3187 39.558V38.466L26.3047 36.324C26.3047 36.1747 26.3047 36.058 26.3047 35.974C26.3047 35.89 26.3047 35.8153 26.3047 35.75C26.3047 35.6753 26.3001 35.596 26.2907 35.512C26.2907 35.4187 26.2907 35.288 26.2907 35.12C26.2907 35.092 26.2907 35.0453 26.2907 34.98C26.3001 34.9053 26.2954 34.714 26.2767 34.406C25.9127 35.0127 25.6094 35.5027 25.3667 35.876C25.1334 36.24 24.9327 36.5247 24.7647 36.73C24.6061 36.926 24.4661 37.0613 24.3447 37.136C24.2234 37.2013 24.0974 37.2387 23.9667 37.248C23.8921 37.2573 23.8174 37.2433 23.7427 37.206C23.6681 37.1687 23.5934 37.122 23.5187 37.066C23.4534 37.01 23.3881 36.954 23.3227 36.898C23.2667 36.8327 23.2201 36.772 23.1827 36.716C22.9587 36.436 22.7067 36.1 22.4267 35.708C22.1467 35.316 21.8574 34.84 21.5587 34.28C21.5587 34.2893 21.5541 34.4433 21.5447 34.742C21.5447 35.0407 21.5447 35.414 21.5447 35.862C21.5447 36.3007 21.5401 36.7767 21.5307 37.29C21.5307 37.794 21.5261 38.2653 21.5167 38.704C21.5167 39.1427 21.5121 39.5113 21.5027 39.81C21.4934 40.0993 21.4841 40.244 21.4747 40.244C21.4747 40.4027 21.4374 40.552 21.3627 40.692C21.2881 40.8227 21.1854 40.93 21.0547 41.014C20.9334 41.098 20.7887 41.1447 20.6207 41.154C20.4527 41.1633 20.2707 41.1167 20.0747 41.014C19.9534 40.9393 19.8601 40.832 19.7947 40.692C19.7387 40.552 19.7014 40.4213 19.6827 40.3C19.6734 40.1693 19.6641 40.0433 19.6547 39.922C19.6547 39.8007 19.6547 39.6747 19.6547 39.544L19.6687 38.452L19.6827 36.296V34.42C19.6827 33.608 19.7107 32.81 19.7667 32.026C19.7667 31.9233 19.7761 31.83 19.7947 31.746C19.8227 31.6527 19.8554 31.564 19.8927 31.48C19.9674 31.3307 20.0654 31.2187 20.1867 31.144C20.3267 31.06 20.4761 31.018 20.6347 31.018C20.7001 31.018 20.7607 31.0227 20.8167 31.032C20.8821 31.032 20.9427 31.0367 20.9987 31.046C21.1854 31.0833 21.3441 31.1953 21.4747 31.382C21.6147 31.5593 21.7454 31.7133 21.8667 31.844C21.9414 31.928 22.0207 32.0307 22.1047 32.152C22.1887 32.2733 22.2727 32.3993 22.3567 32.53C22.4407 32.6607 22.5201 32.7867 22.5947 32.908C22.6694 33.0293 22.7347 33.1367 22.7907 33.23C23.0334 33.622 23.2481 33.9813 23.4347 34.308C23.6307 34.6347 23.8127 34.9147 23.9807 35.148C24.0087 35.12 24.0414 35.0827 24.0787 35.036C24.1161 34.98 24.1534 34.924 24.1907 34.868C24.2374 34.8027 24.2747 34.742 24.3027 34.686C24.3401 34.63 24.3681 34.5833 24.3867 34.546C24.4801 34.3967 24.5734 34.252 24.6667 34.112C24.7601 33.9627 24.8581 33.8087 24.9607 33.65C25.0727 33.482 25.1847 33.3 25.2967 33.104C25.4181 32.908 25.5581 32.684 25.7167 32.432C25.7821 32.32 25.8661 32.1847 25.9687 32.026C26.0714 31.8673 26.1881 31.7133 26.3187 31.564C26.4494 31.4147 26.5847 31.2887 26.7247 31.186C26.8741 31.074 27.0234 31.018 27.1727 31.018C27.2474 31.018 27.3127 31.0227 27.3687 31.032C27.4247 31.032 27.4807 31.0367 27.5367 31.046C27.6487 31.0553 27.7561 31.1067 27.8587 31.2C27.9334 31.2747 27.9894 31.354 28.0267 31.438C28.0641 31.5593 28.0874 31.662 28.0967 31.746C28.1061 31.8113 28.1107 31.872 28.1107 31.928C28.1201 31.984 28.1247 32.04 28.1247 32.096C28.1247 32.6187 28.1294 33.1367 28.1387 33.65C28.1481 34.1633 28.1527 34.6813 28.1527 35.204C28.1527 35.8387 28.1527 36.492 28.1527 37.164C28.1621 37.836 28.1667 38.4893 28.1667 39.124C28.1667 39.2547 28.1714 39.3947 28.1807 39.544C28.1901 39.6933 28.1901 39.8427 28.1807 39.992ZM31.2387 32.768L31.2107 34.966H31.7707C32.1534 34.9567 32.4941 34.952 32.7927 34.952C33.0914 34.952 33.4227 34.9567 33.7867 34.966H33.8567C33.9687 34.966 34.0761 34.9707 34.1787 34.98C34.2907 34.98 34.3981 34.98 34.5007 34.98C34.6127 34.9893 34.7201 35.008 34.8227 35.036C34.9254 35.0547 35.0281 35.078 35.1307 35.106C35.2894 35.162 35.4201 35.246 35.5227 35.358C35.6161 35.4793 35.6627 35.6147 35.6627 35.764C35.6627 35.8107 35.6627 35.8667 35.6627 35.932C35.6627 35.988 35.6534 36.0393 35.6347 36.086C35.6161 36.1887 35.5554 36.282 35.4527 36.366C35.4061 36.4313 35.3174 36.478 35.1867 36.506C35.0654 36.5433 34.9441 36.5667 34.8227 36.576C34.6921 36.604 34.5614 36.618 34.4307 36.618H33.7727L31.1827 36.632L31.1547 39.376L33.9407 39.404H34.5987C34.6734 39.404 34.7434 39.404 34.8087 39.404C34.8741 39.404 34.9347 39.4087 34.9907 39.418C35.0654 39.4367 35.1307 39.4507 35.1867 39.46C35.2521 39.46 35.3127 39.4693 35.3687 39.488C35.4807 39.5253 35.5741 39.5767 35.6487 39.642C35.7421 39.7353 35.8027 39.8333 35.8307 39.936C35.8401 39.9827 35.8447 40.034 35.8447 40.09C35.8541 40.1367 35.8541 40.188 35.8447 40.244C35.8447 40.3933 35.7981 40.5287 35.7047 40.65C35.5927 40.7807 35.4621 40.8647 35.3127 40.902C35.1167 40.986 34.9021 41.028 34.6687 41.028C34.5661 41.0373 34.4587 41.042 34.3467 41.042C34.2347 41.042 34.1274 41.0467 34.0247 41.056H33.9407C33.2127 41.0747 32.4567 41.0747 31.6727 41.056C31.4861 41.056 31.3367 41.0513 31.2247 41.042C31.1127 41.042 31.0101 41.042 30.9167 41.042C30.8327 41.042 30.7441 41.042 30.6507 41.042C30.5574 41.042 30.4361 41.042 30.2867 41.042C30.0721 41.0607 29.8947 41.0233 29.7547 40.93C29.6521 40.8647 29.5727 40.776 29.5167 40.664C29.4887 40.636 29.4747 40.608 29.4747 40.58C29.4654 40.5613 29.4561 40.5473 29.4467 40.538C29.4374 40.5287 29.4281 40.5147 29.4187 40.496C29.4001 40.4493 29.3861 40.4027 29.3767 40.356C29.3674 40.3 29.3627 40.2487 29.3627 40.202C29.3534 40.1553 29.3441 40.1087 29.3347 40.062C29.3347 40.0153 29.3301 39.9687 29.3207 39.922V39.698C29.3207 39.6607 29.3207 39.6233 29.3207 39.586C29.3301 39.5487 29.3347 39.5113 29.3347 39.474V38.382L29.3627 36.366V34.504C29.3627 34.168 29.3627 33.8693 29.3627 33.608C29.3721 33.3467 29.3814 33.062 29.3907 32.754V32.684C29.4001 32.5813 29.4047 32.488 29.4047 32.404C29.4141 32.3107 29.4187 32.2173 29.4187 32.124C29.4281 31.9373 29.4794 31.7553 29.5727 31.578C29.6101 31.5033 29.6474 31.438 29.6847 31.382C29.7314 31.326 29.7921 31.2793 29.8667 31.242C30.0067 31.158 30.1514 31.116 30.3007 31.116C30.3754 31.116 30.4314 31.1207 30.4687 31.13V31.116C30.6367 31.116 30.7721 31.116 30.8747 31.116C30.9774 31.116 31.0754 31.116 31.1687 31.116C31.2714 31.116 31.3787 31.116 31.4907 31.116C31.6027 31.1067 31.7567 31.102 31.9527 31.102C32.3261 31.0927 32.6807 31.088 33.0167 31.088C33.3527 31.088 33.6981 31.0927 34.0527 31.102H34.1087C34.2114 31.1113 34.3187 31.116 34.4307 31.116C34.5427 31.116 34.6501 31.1207 34.7527 31.13C34.8554 31.13 34.9581 31.144 35.0607 31.172C35.1634 31.1907 35.2661 31.2187 35.3687 31.256C35.5274 31.3027 35.6581 31.382 35.7607 31.494C35.8447 31.6247 35.8867 31.7553 35.8867 31.886C35.8867 31.942 35.8867 31.998 35.8867 32.054C35.8867 32.1007 35.8774 32.1473 35.8587 32.194C35.8494 32.2873 35.7934 32.3853 35.6907 32.488C35.6534 32.5067 35.6114 32.53 35.5647 32.558C35.5274 32.586 35.4807 32.6093 35.4247 32.628C35.3687 32.6467 35.3081 32.6607 35.2427 32.67C35.1867 32.67 35.1307 32.6747 35.0747 32.684C35.0001 32.7027 34.9301 32.712 34.8647 32.712C34.8087 32.712 34.7434 32.712 34.6687 32.712H34.0387L31.2387 32.726V32.768Z" fill="#424242"/>
</svg>
