<svg width="30" height="30" viewBox="0 0 30 30" fill="none" xmlns="http://www.w3.org/2000/svg">
<path d="M11.6612 0C5.22147 0 0 5.22088 0 11.6599C0 18.0989 5.22147 23.3198 11.6612 23.3198C14.1375 23.3198 16.4341 22.5475 18.3218 21.2319L18.3232 21.2306L26.9716 29.8781C27.1321 30.0386 27.3873 30.0427 27.552 29.8781L29.8829 27.5475C30.0434 27.387 30.0351 27.1209 29.8815 26.9673L21.2343 18.3211C22.55 16.4322 23.3224 14.1359 23.3224 11.6599C23.3224 5.22088 18.1009 0 11.6612 0ZM11.6612 20.5762C6.736 20.5762 2.74377 16.5845 2.74377 11.6599C2.74377 6.73528 6.73605 2.74351 11.6612 2.74351C16.5863 2.74351 20.5785 6.73528 20.5785 11.6599C20.5785 16.5845 16.5863 20.5762 11.6612 20.5762Z" fill="#424242"/>
</svg>
