<svg width="24" height="24" viewBox="0 0 24 24" fill="none" xmlns="http://www.w3.org/2000/svg">
<path d="M16.7991 24H7.07906C5.09906 24 3.53906 22.38 3.53906 20.46V9.6C3.53906 9.24 3.77906 9 4.13906 9C4.49906 9 4.73906 9.24 4.73906 9.6V20.46C4.73906 21.78 5.81906 22.8 7.07906 22.8H16.7991C18.1191 22.8 19.1391 21.72 19.1391 20.46V9.6C19.1391 9.24 19.3791 9 19.7391 9C20.0991 9 20.3391 9.24 20.3391 9.6V20.46C20.3391 22.38 18.7191 24 16.7991 24Z" fill="white"/>
<path d="M19.9814 2.94H15.4214C15.1214 1.26 13.6814 0 11.9414 0C10.2014 0 8.76141 1.26 8.46141 2.94H3.90141C2.52141 2.94 1.44141 4.02 1.44141 5.4C1.44141 6.78 2.52141 7.8 3.90141 7.8H20.0414C21.4214 7.8 22.5014 6.72 22.5014 5.34C22.5014 3.96 21.3614 2.94 19.9814 2.94ZM11.9414 1.2C13.0214 1.2 13.9214 1.92 14.1614 2.94H9.66141C9.96141 1.92 10.8614 1.2 11.9414 1.2ZM19.9814 6.6H3.90141C3.24141 6.6 2.64141 6.06 2.64141 5.34C2.64141 4.68 3.18141 4.08 3.90141 4.08H20.0414C20.7014 4.08 21.3014 4.62 21.3014 5.34C21.2414 6.06 20.7014 6.6 19.9814 6.6Z" fill="white"/>
<path d="M7.74063 21.0598C7.38062 21.0598 7.14062 20.8198 7.14062 20.4598V10.4398C7.14062 10.0798 7.38062 9.83984 7.74063 9.83984C8.10063 9.83984 8.34063 10.0798 8.34063 10.4398V20.4598C8.34063 20.7598 8.04063 21.0598 7.74063 21.0598Z" fill="white"/>
<path d="M16.1391 21.0598C15.7791 21.0598 15.5391 20.8198 15.5391 20.4598V10.4398C15.5391 10.0798 15.7791 9.83984 16.1391 9.83984C16.4991 9.83984 16.7391 10.0798 16.7391 10.4398V20.4598C16.7391 20.7598 16.4391 21.0598 16.1391 21.0598Z" fill="white"/>
<path d="M11.9398 21.0598C11.5798 21.0598 11.3398 20.8198 11.3398 20.4598V10.4398C11.3398 10.0798 11.5798 9.83984 11.9398 9.83984C12.2998 9.83984 12.5398 10.0798 12.5398 10.4398V20.4598C12.5398 20.7598 12.2398 21.0598 11.9398 21.0598Z" fill="white"/>
</svg>
