<svg width="16" height="16" viewBox="0 0 16 16" fill="none" xmlns="http://www.w3.org/2000/svg">
<path d="M1.23077 0.730769H0.730769V1.23077V14.7692V15.2692H1.23077H14.7692H15.2692V14.7692V8C15.2692 7.9694 15.2814 7.94005 15.303 7.91841C15.3247 7.89677 15.354 7.88462 15.3846 7.88462C15.4152 7.88462 15.4446 7.89677 15.4662 7.91841C15.4878 7.94005 15.5 7.9694 15.5 8V15.3846C15.5 15.4152 15.4878 15.4446 15.4662 15.4662C15.4446 15.4878 15.4152 15.5 15.3846 15.5H0.615385C0.58478 15.5 0.555432 15.4878 0.533795 15.4662C0.512157 15.4446 0.5 15.4152 0.5 15.3846V0.615385C0.5 0.584783 0.512157 0.555434 0.533795 0.533795C0.555434 0.512157 0.584783 0.5 0.615385 0.5H8C8.0306 0.5 8.05995 0.512157 8.08159 0.533795C8.10323 0.555434 8.11539 0.584782 8.11539 0.615385C8.11539 0.645987 8.10323 0.675336 8.08159 0.696974C8.05995 0.718612 8.0306 0.730769 8 0.730769H1.23077ZM4.9427 8.43517L4.94447 8.4334L12.2243 1.1474C12.5729 0.798868 13.0456 0.603065 13.5385 0.603065C14.0314 0.603065 14.5041 0.798868 14.8526 1.1474C15.2011 1.49593 15.3969 1.96864 15.3969 2.46154C15.3969 2.95444 15.2011 3.42715 14.8526 3.77568L7.56659 11.0555L7.56483 11.0573C7.55251 11.0697 7.53752 11.0792 7.52099 11.085L7.52071 11.0851L3.72994 12.4143L3.72993 12.4143L3.72471 12.4162C3.7137 12.4202 3.70216 12.4225 3.69047 12.423C3.6734 12.4224 3.65667 12.418 3.6415 12.4101C3.62519 12.4016 3.61114 12.3893 3.60053 12.3743C3.58992 12.3593 3.58305 12.3419 3.58049 12.3237C3.57794 12.3055 3.57977 12.287 3.58582 12.2697C3.58583 12.2696 3.58583 12.2696 3.58584 12.2696L4.91491 8.47929L4.91501 8.47902C4.92079 8.46248 4.93026 8.44749 4.9427 8.43517ZM4.22248 11.1422L3.88779 12.117L4.86056 11.7765L7.3221 10.915L7.43001 10.8772L7.51078 10.7963L14.6859 3.60894C14.9902 3.30463 15.1611 2.8919 15.1611 2.46154C15.1611 2.03118 14.9902 1.61845 14.6859 1.31414C14.3816 1.00983 13.9688 0.838871 13.5385 0.83887C13.1083 0.83887 12.6957 1.00968 12.3915 1.31374C12.3913 1.31387 12.3912 1.31401 12.3911 1.31414L5.18551 8.49507L5.10327 8.57704L5.06556 8.68686L4.22248 11.1422Z" fill="#606060" stroke="#424242"/>
</svg>
