<svg width="12" height="12" viewBox="0 0 12 12" fill="none" xmlns="http://www.w3.org/2000/svg">
<path d="M11.867 9.83499L6.867 1.16833C6.694 0.868992 6.37033 0.666992 6 0.666992C5.62967 0.666992 5.306 0.868992 5.133 1.16833L0.133 9.83499C0.0486667 9.98166 0 10.152 0 10.3337C0 10.8857 0.448 11.3337 1 11.3337H11C11.552 11.3337 12 10.8857 12 10.3337C12 10.152 11.9517 9.98166 11.867 9.83499ZM0.999333 10.3347L5.999 1.66699H6L6.00067 1.66799L11 10.3337L0.999333 10.3347ZM6 8.00033C5.632 8.00033 5.33333 8.29899 5.33333 8.66699C5.33333 9.03533 5.63167 9.33366 6 9.33366C6.36833 9.33366 6.66667 9.03499 6.66667 8.66699C6.66667 8.29899 6.36833 8.00033 6 8.00033ZM5.33333 5.00033C5.33333 5.03833 5.33667 5.07599 5.34267 5.11233L5.671 7.05635C5.698 7.21399 5.835 7.33366 6 7.33366C6.165 7.33366 6.302 7.21399 6.32867 7.05633L6.657 5.11231C6.66333 5.07599 6.66667 5.03833 6.66667 5.00033C6.66667 4.63233 6.36833 4.33366 6 4.33366C5.632 4.33366 5.33333 4.63233 5.33333 5.00033Z" fill="#E53935"/>
</svg>
