<svg width="10" height="10" viewBox="0 0 10 10" fill="none" xmlns="http://www.w3.org/2000/svg">
<path d="M0.386698 9.99999C0.3361 10.0003 0.285941 9.99059 0.239098 9.97145C0.192255 9.95231 0.14965 9.92411 0.113725 9.88847C0.0776896 9.85272 0.0490873 9.81019 0.0295683 9.76333C0.0100493 9.71647 0 9.6662 0 9.61544C0 9.56467 0.0100493 9.51441 0.0295683 9.46755C0.0490873 9.42069 0.0776896 9.37815 0.113725 9.34241L9.34099 0.113094C9.41338 0.0406813 9.51157 0 9.61396 0C9.71634 0 9.81453 0.0406813 9.88693 0.113094C9.95933 0.185507 10 0.283721 10 0.386128C10 0.488536 9.95933 0.586749 9.88693 0.659162L0.659672 9.88847C0.623747 9.92411 0.581141 9.95231 0.534299 9.97145C0.487456 9.99059 0.437297 10.0003 0.386698 9.99999Z" fill="white"/>
<path d="M9.6133 9.99999C9.5627 10.0003 9.51254 9.99059 9.4657 9.97145C9.41886 9.95231 9.37625 9.92411 9.34033 9.88847L0.113069 0.659162C0.0406721 0.586749 -7.62826e-10 0.488536 0 0.386128C7.62826e-10 0.28372 0.0406721 0.185507 0.113069 0.113094C0.185466 0.0406812 0.283657 7.62996e-10 0.386042 0C0.488427 -7.62996e-10 0.586618 0.0406812 0.659015 0.113094L9.88627 9.34241C9.92231 9.37815 9.95091 9.42069 9.97043 9.46755C9.98995 9.51441 10 9.56467 10 9.61544C10 9.6662 9.98995 9.71647 9.97043 9.76333C9.95091 9.81019 9.92231 9.85272 9.88627 9.88847C9.85035 9.92411 9.80774 9.95231 9.7609 9.97145C9.71406 9.99059 9.6639 10.0003 9.6133 9.99999Z" fill="white"/>
</svg>
