<?xml version="1.0" encoding="UTF-8"?>
<!DOCTYPE svg PUBLIC "-//W3C//DTD SVG 1.1//EN" "http://www.w3.org/Graphics/SVG/1.1/DTD/svg11.dtd">
<svg xmlns="http://www.w3.org/2000/svg" version="1.1" width="64px" height="64px" style="shape-rendering:geometricPrecision; text-rendering:geometricPrecision; image-rendering:optimizeQuality; fill-rule:evenodd; clip-rule:evenodd" xmlns:xlink="http://www.w3.org/1999/xlink">
<g><path style="opacity:0.999" fill="#56b0c5" d="M 22.5,8.5 C 21.925,10.4113 20.925,12.078 19.5,13.5C 19.1667,13.5 18.8333,13.5 18.5,13.5C 17.6661,12.2521 16.3328,11.5854 14.5,11.5C 13.1667,11.6667 11.8333,11.8333 10.5,12C 9.94404,12.3826 9.61071,12.8826 9.5,13.5C 8.72813,14.6935 7.72813,15.6935 6.5,16.5C 6.05484,13.6354 6.7215,11.1354 8.5,9C 13.1548,8.50085 17.8215,8.33418 22.5,8.5 Z"/></g>
<g><path style="opacity:0.938" fill="#038aa9" d="M 22.5,8.5 C 25.7124,8.71244 27.7124,10.3791 28.5,13.5C 25.5,13.5 22.5,13.5 19.5,13.5C 20.925,12.078 21.925,10.4113 22.5,8.5 Z"/></g>
<g><path style="opacity:1" fill="#fafdfe" d="M 18.5,13.5 C 13.0687,12.0936 10.7353,14.0936 11.5,19.5C 9.69206,18.0821 9.02539,16.0821 9.5,13.5C 9.61071,12.8826 9.94404,12.3826 10.5,12C 11.8333,11.8333 13.1667,11.6667 14.5,11.5C 16.3328,11.5854 17.6661,12.2521 18.5,13.5 Z"/></g>
<g><path style="opacity:0.998" fill="#38d0ee" d="M 18.5,13.5 C 18.8333,13.5 19.1667,13.5 19.5,13.5C 22.5,13.5 25.5,13.5 28.5,13.5C 37.1731,13.3336 45.8397,13.5002 54.5,14C 55,14.5 55.5,15 56,15.5C 56.4995,21.4908 56.6662,27.4908 56.5,33.5C 54.4184,33.6243 52.9184,34.6243 52,36.5C 51.5017,39.8168 51.335,43.1501 51.5,46.5C 46.8215,46.3342 42.1548,46.5008 37.5,47C 35.6243,47.9184 34.6243,49.4184 34.5,51.5C 25.8269,51.6664 17.1603,51.4998 8.5,51C 8,50.5 7.5,50 7,49.5C 6.50038,42.5079 6.33371,35.5079 6.5,28.5C 10.918,27.1701 12.5847,24.1701 11.5,19.5C 10.7353,14.0936 13.0687,12.0936 18.5,13.5 Z"/></g>
<g><path style="opacity:1" fill="#78def2" d="M 9.5,13.5 C 9.02539,16.0821 9.69206,18.0821 11.5,19.5C 12.5847,24.1701 10.918,27.1701 6.5,28.5C 6.5,24.5 6.5,20.5 6.5,16.5C 7.72813,15.6935 8.72813,14.6935 9.5,13.5 Z"/></g>
<g><path style="opacity:0.989" fill="#2eb1cb" d="M 56.5,33.5 C 56.666,38.8437 56.4994,44.1771 56,49.5C 55.5,50 55,50.5 54.5,51C 47.8417,51.4996 41.175,51.6663 34.5,51.5C 34.6243,49.4184 35.6243,47.9184 37.5,47C 42.1548,46.5008 46.8215,46.3342 51.5,46.5C 51.335,43.1501 51.5017,39.8168 52,36.5C 52.9184,34.6243 54.4184,33.6243 56.5,33.5 Z"/></g>
<g><path style="opacity:0.258" fill="#000000" d="M 45.5,63.5 C 36.1667,63.5 26.8333,63.5 17.5,63.5C 16.1225,62.7656 14.6225,62.0989 13,61.5C 12.3828,60.5509 12.5494,59.7175 13.5,59C 25.5,57 37.5,57 49.5,59C 50.4506,59.7175 50.6172,60.5509 50,61.5C 48.3775,62.0989 46.8775,62.7656 45.5,63.5 Z"/></g>
</svg>
